<svg xmlns="http://www.w3.org/2000/svg" viewBox="-24 0 664 360" fill="none">
  <rect width="640" height="360" rx="14" fill="#F8FBFF"/>
  <rect x="18" y="18" width="604" height="324" rx="10" fill="#FFFFFF" stroke="#D5E0ED"/>

  <text x="38" y="48" font-family="Arial, sans-serif" font-size="18" font-weight="700" fill="#17324F">Step 1: Failure Collection</text>
  <text x="38" y="72" font-family="Arial, sans-serif" font-size="13" fill="#4C6078">Weekly intake grows while verification throughput keeps pace.</text>

  <rect x="42" y="92" width="556" height="220" fill="#FCFEFF" stroke="#E1EAF4"/>
  <path d="M42 312H598M42 267H598M42 222H598M42 177H598M42 132H598M42 92H598" stroke="#E6EEF8"/>
  <path d="M42 312V92M140 312V92M238 312V92M336 312V92M434 312V92M532 312V92" stroke="#EEF3F9"/>

  <rect x="92" y="212" width="28" height="100" rx="3" fill="#A4C9EB"/>
  <rect x="124" y="228" width="28" height="84" rx="3" fill="#2F80C1"/>
  <rect x="190" y="188" width="28" height="124" rx="3" fill="#A4C9EB"/>
  <rect x="222" y="204" width="28" height="108" rx="3" fill="#2F80C1"/>
  <rect x="288" y="164" width="28" height="148" rx="3" fill="#A4C9EB"/>
  <rect x="320" y="182" width="28" height="130" rx="3" fill="#2F80C1"/>
  <rect x="386" y="136" width="28" height="176" rx="3" fill="#A4C9EB"/>
  <rect x="418" y="156" width="28" height="156" rx="3" fill="#2F80C1"/>
  <rect x="484" y="112" width="28" height="200" rx="3" fill="#A4C9EB"/>
  <rect x="516" y="132" width="28" height="180" rx="3" fill="#2F80C1"/>

  <text x="10" y="316" text-anchor="end" font-family="Arial, sans-serif" font-size="11" fill="#5A7088">0</text>
  <text x="10" y="271" text-anchor="end" font-family="Arial, sans-serif" font-size="11" fill="#5A7088">100</text>
  <text x="10" y="226" text-anchor="end" font-family="Arial, sans-serif" font-size="11" fill="#5A7088">200</text>
  <text x="10" y="181" text-anchor="end" font-family="Arial, sans-serif" font-size="11" fill="#5A7088">300</text>
  <text x="10" y="136" text-anchor="end" font-family="Arial, sans-serif" font-size="11" fill="#5A7088">400</text>
  <text x="10" y="96" text-anchor="end" font-family="Arial, sans-serif" font-size="11" fill="#5A7088">500</text>

  <text x="122" y="332" text-anchor="middle" font-family="Arial, sans-serif" font-size="12" fill="#5A7088">Week 1</text>
  <text x="220" y="332" text-anchor="middle" font-family="Arial, sans-serif" font-size="12" fill="#5A7088">Week 2</text>
  <text x="318" y="332" text-anchor="middle" font-family="Arial, sans-serif" font-size="12" fill="#5A7088">Week 3</text>
  <text x="416" y="332" text-anchor="middle" font-family="Arial, sans-serif" font-size="12" fill="#5A7088">Week 4</text>
  <text x="514" y="332" text-anchor="middle" font-family="Arial, sans-serif" font-size="12" fill="#5A7088">Week 5</text>

  <rect x="384" y="30" width="224" height="50" rx="7" fill="#F1F7FF" stroke="#D0E2F3"/>
  <rect x="396" y="45" width="14" height="10" fill="#A4C9EB"/>
  <text x="416" y="54" font-family="Arial, sans-serif" font-size="12" fill="#385776">Submitted</text>
  <rect x="506" y="45" width="14" height="10" fill="#2F80C1"/>
  <text x="526" y="54" font-family="Arial, sans-serif" font-size="12" fill="#385776">Verified</text>
  <text x="396" y="72" font-family="Arial, sans-serif" font-size="12" font-weight="700" fill="#1F6297">Verification rate: 88.7%</text>
</svg>
